<svg width="280" height="280" viewBox="0 0 280 280" fill="none" xmlns="http://www.w3.org/2000/svg">
<path d="M36.4 86.7996C39.4928 86.7996 42 84.2924 42 81.1996C42 78.1068 39.4928 75.5996 36.4 75.5996C33.3072 75.5996 30.8 78.1068 30.8 81.1996C30.8 84.2924 33.3072 86.7996 36.4 86.7996Z" fill="#EE3E54"/>
<path d="M215.6 39.1996C217.146 39.1996 218.4 37.946 218.4 36.3996C218.4 34.8532 217.146 33.5996 215.6 33.5996C214.054 33.5996 212.8 34.8532 212.8 36.3996C212.8 37.946 214.054 39.1996 215.6 39.1996Z" fill="#F1BC19"/>
<path d="M140 243.6C197.217 243.6 243.6 197.217 243.6 140C243.6 82.7837 197.217 36.4004 140 36.4004C82.7833 36.4004 36.4 82.7837 36.4 140C36.4 197.217 82.7833 243.6 140 243.6Z" fill="#FCE0A2"/>
<path d="M232.4 53.1998C238.586 53.1998 243.6 48.1854 243.6 41.9998C243.6 35.8142 238.586 30.7998 232.4 30.7998C226.214 30.7998 221.2 35.8142 221.2 41.9998C221.2 48.1854 226.214 53.1998 232.4 53.1998Z" fill="#F1BC19"/>
<path d="M243.6 72.7996C246.693 72.7996 249.2 70.2924 249.2 67.1996C249.2 64.1068 246.693 61.5996 243.6 61.5996C240.507 61.5996 238 64.1068 238 67.1996C238 70.2924 240.507 72.7996 243.6 72.7996Z" fill="#EE3E54"/>
<path d="M226.8 218.4C229.893 218.4 232.4 215.893 232.4 212.8C232.4 209.707 229.893 207.2 226.8 207.2C223.707 207.2 221.2 209.707 221.2 212.8C221.2 215.893 223.707 218.4 226.8 218.4Z" fill="#FBCD59"/>
<path d="M42 187.6C48.1856 187.6 53.2 182.586 53.2 176.4C53.2 170.215 48.1856 165.2 42 165.2C35.8144 165.2 30.8 170.215 30.8 176.4C30.8 182.586 35.8144 187.6 42 187.6Z" fill="#FBCD59"/>
<path d="M70 249.2C73.0928 249.2 75.6 246.693 75.6 243.6C75.6 240.507 73.0928 238 70 238C66.9072 238 64.4 240.507 64.4 243.6C64.4 246.693 66.9072 249.2 70 249.2Z" fill="#EE3E54"/>
<path d="M51.8 156.8C55.666 156.8 58.8 153.666 58.8 149.8C58.8 145.934 55.666 142.8 51.8 142.8C47.934 142.8 44.8 145.934 44.8 149.8C44.8 153.666 47.934 156.8 51.8 156.8Z" fill="white"/>
<path d="M58.8 190.4C60.3464 190.4 61.6 189.146 61.6 187.6C61.6 186.053 60.3464 184.8 58.8 184.8C57.2536 184.8 56 186.053 56 187.6C56 189.146 57.2536 190.4 58.8 190.4Z" fill="#F1BC19"/>
<path d="M224 98.0004C225.546 98.0004 226.8 96.7468 226.8 95.2004C226.8 93.654 225.546 92.4004 224 92.4004C222.454 92.4004 221.2 93.654 221.2 95.2004C221.2 96.7468 222.454 98.0004 224 98.0004Z" fill="white"/>
<path d="M202.44 94.3596V185.64C202.44 194.908 194.908 202.44 185.64 202.44H94.36C85.092 202.44 77.56 194.908 77.56 185.64V94.3596C77.56 85.0916 85.092 77.5596 94.36 77.5596H185.64C194.908 77.5596 202.44 85.0916 202.44 94.3596Z" fill="#3231C7"/>
<path d="M202.44 134.512V185.64C202.44 194.908 194.908 202.44 185.64 202.44H94.36C85.092 202.44 77.56 194.908 77.56 185.64V94.3596C77.56 85.0916 85.092 77.5596 94.36 77.5596H145.488C169.68 90.4116 189.588 110.32 202.44 134.512Z" fill="#7228AD"/>
<path d="M196 198.8C196 198.828 196 198.828 196 198.856C193.144 201.096 189.56 202.44 185.64 202.44H94.36C85.092 202.44 77.56 194.908 77.56 185.64V94.36C77.56 90.44 78.904 86.856 81.144 84C81.172 84 81.172 84 81.2 84C144.592 84 196 135.408 196 198.8Z" fill="#B11E93"/>
<path d="M173.6 198.8C173.6 200.032 173.572 201.236 173.516 202.44H94.36C85.092 202.44 77.56 194.908 77.56 185.64V106.484C78.764 106.428 79.968 106.4 81.2 106.4C132.244 106.4 173.6 147.756 173.6 198.8Z" fill="#DB1A58"/>
<path d="M151.2 198.8C151.2 200.004 151.172 201.236 151.116 202.44H94.36C85.092 202.44 77.56 194.908 77.56 185.64V128.884C78.764 128.828 79.996 128.8 81.2 128.8C119.868 128.8 151.2 160.132 151.2 198.8Z" fill="#E4273E"/>
<path d="M131.6 198.8C131.6 200.032 131.544 201.236 131.46 202.44H94.36C85.092 202.44 77.56 194.908 77.56 185.64V148.54C78.764 148.456 79.968 148.4 81.2 148.4C109.032 148.4 131.6 170.968 131.6 198.8Z" fill="#F47C22"/>
<path d="M114.8 198.8C114.8 200.032 114.744 201.236 114.604 202.44H94.36C85.092 202.44 77.56 194.908 77.56 185.64V165.396C78.764 165.256 79.968 165.2 81.2 165.2C99.764 165.2 114.8 180.236 114.8 198.8Z" fill="#EF9922"/>
<path d="M185.64 204.4H94.36C84.0168 204.4 75.6 195.983 75.6 185.64V94.3596C75.6 84.0164 84.0168 75.5996 94.36 75.5996H185.64C195.983 75.5996 204.4 84.0164 204.4 94.3596V185.64C204.4 195.983 195.983 204.4 185.64 204.4ZM94.36 79.5196C86.1756 79.5196 79.52 86.1752 79.52 94.3596V185.64C79.52 193.821 86.1756 200.48 94.36 200.48H185.64C193.824 200.48 200.48 193.824 200.48 185.64V94.3596C200.48 86.178 193.824 79.5196 185.64 79.5196H94.36Z" fill="#472B29"/>
<path d="M139.972 183.26C128.822 183.26 124.673 183.229 120.434 183.036C116.547 182.862 113.52 182.277 110.62 181.14C107.803 180.054 105.599 178.623 103.471 176.495C101.363 174.384 99.9292 172.178 98.8288 169.347C97.7228 166.527 97.1376 163.5 96.9332 159.533C96.74 155.263 96.7092 151.116 96.7092 139.997C96.7092 128.898 96.74 124.76 96.9332 120.487C97.1068 116.6 97.692 113.576 98.826 110.676C99.9292 107.817 101.36 105.613 103.471 103.527C105.582 101.419 107.786 99.9852 110.622 98.882C113.52 97.748 116.547 97.1656 120.434 96.9864C124.816 96.7904 129.016 96.7344 139.972 96.7344C150.931 96.7344 155.123 96.7904 159.48 96.9864C163.366 97.1628 166.393 97.7452 169.296 98.882C172.155 99.9852 174.356 101.416 176.442 103.527C178.534 105.594 179.976 107.794 181.115 110.676C182.227 113.604 182.806 116.634 182.983 120.487C183.179 124.911 183.235 129.105 183.235 139.994C183.235 150.906 183.179 155.106 182.983 159.533C182.806 163.388 182.23 166.415 181.115 169.347C179.976 172.197 178.531 174.404 176.442 176.492C174.362 178.598 172.166 180.032 169.322 181.138C166.384 182.272 163.349 182.857 159.48 183.03C155.24 183.229 151.099 183.26 139.972 183.26ZM136.304 104.86C128.598 104.86 124.368 104.919 120.694 105.081C116.936 105.255 114.864 105.885 113.478 106.414C111.751 107.092 110.513 107.898 109.208 109.208C107.901 110.513 107.094 111.742 106.428 113.453C105.893 114.848 105.26 116.925 105.087 120.691C104.896 124.908 104.866 128.797 104.866 139.975C104.866 151.175 104.896 155.067 105.087 159.281C105.26 163.022 105.89 165.094 106.422 166.482C107.092 168.216 107.895 169.453 109.194 170.752C110.519 172.054 111.759 172.858 113.478 173.536C114.82 174.062 116.85 174.686 120.691 174.866C125.059 175.062 129.203 175.115 139.978 175.115C150.774 175.115 154.924 175.062 159.284 174.866C163.218 174.684 165.295 174.017 166.516 173.53C168.207 172.875 169.439 172.08 170.755 170.792C172.06 169.459 172.869 168.218 173.558 166.496C174.079 165.133 174.692 163.089 174.871 159.286C175.064 154.882 175.12 150.732 175.12 139.975C175.12 129.237 175.064 125.093 174.871 120.694C174.695 116.897 174.082 114.853 173.564 113.498C172.894 111.762 172.094 110.527 170.792 109.228C169.397 107.856 168.263 107.128 166.457 106.436C165.158 105.918 163.159 105.294 159.289 105.112C154.991 104.916 150.839 104.863 139.98 104.863L136.304 104.86Z" fill="white"/>
<path d="M139.972 97.44C150.917 97.44 155.106 97.4932 159.449 97.692C163.254 97.8628 166.211 98.434 169.047 99.54C171.805 100.604 173.93 101.984 175.955 104.034C177.968 106.022 179.36 108.15 180.457 110.919C181.546 113.786 182.109 116.746 182.283 120.52C182.479 124.933 182.532 129.122 182.532 140C182.532 150.9 182.479 155.092 182.283 159.505C182.109 163.285 181.546 166.244 180.468 169.081C179.36 171.85 177.965 173.984 175.941 176.008C173.936 178.038 171.816 179.421 169.072 180.488C166.208 181.594 163.24 182.165 159.452 182.336C155.226 182.529 151.091 182.56 139.975 182.56C128.836 182.56 124.692 182.529 120.467 182.336C116.662 182.165 113.705 181.597 110.874 180.488C108.156 179.438 106.028 178.055 103.972 176.002C101.934 173.961 100.551 171.833 99.484 169.092C98.4088 166.345 97.8404 163.386 97.6388 159.508C97.4456 155.246 97.4148 151.105 97.4148 139.997C97.4148 128.912 97.4456 124.776 97.6388 120.518C97.8096 116.712 98.378 113.756 99.4868 110.922C100.551 108.164 101.931 106.036 103.975 104.02C106.011 101.984 108.142 100.601 110.883 99.5344C113.708 98.4312 116.665 97.86 120.47 97.6864C124.838 97.4932 129.03 97.44 139.972 97.44ZM139.972 175.812C150.783 175.812 154.938 175.759 159.312 175.563C163.352 175.375 165.502 174.684 166.754 174.182C168.549 173.488 169.848 172.651 171.259 171.268C172.623 169.876 173.474 168.568 174.208 166.732C174.742 165.329 175.381 163.218 175.56 159.314C175.756 154.902 175.809 150.744 175.809 139.972C175.809 129.223 175.756 125.07 175.56 120.658C175.378 116.763 174.742 114.652 174.208 113.238C173.51 111.432 172.634 110.085 171.27 108.718C169.82 107.293 168.582 106.495 166.72 105.784C165.36 105.241 163.29 104.594 159.314 104.406C155.005 104.21 150.847 104.157 139.975 104.157H136.304C128.587 104.157 124.348 104.216 120.658 104.378C116.805 104.558 114.663 105.207 113.215 105.759C111.42 106.462 110.074 107.344 108.71 108.707C107.346 110.068 106.467 111.409 105.767 113.201C105.216 114.638 104.56 116.785 104.381 120.655C104.188 124.886 104.157 128.778 104.157 139.969C104.157 151.18 104.185 155.081 104.381 159.309C104.56 163.15 105.213 165.29 105.762 166.729C106.467 168.56 107.318 169.868 108.702 171.251C110.076 172.6 111.426 173.477 113.218 174.18C114.607 174.723 116.71 175.372 120.655 175.557C125.034 175.759 129.186 175.812 139.972 175.812ZM139.972 96.04C128.797 96.04 124.701 96.0988 120.403 96.292C116.435 96.4712 113.341 97.0732 110.37 98.2324C107.439 99.3748 105.162 100.856 102.981 103.032C100.797 105.19 99.3132 107.47 98.1764 110.421C97.0116 113.394 96.4124 116.491 96.236 120.456C96.0428 124.76 96.012 128.909 96.012 139.997C96.012 151.11 96.0428 155.263 96.236 159.569C96.446 163.612 97.0452 166.706 98.1764 169.602C99.316 172.528 100.8 174.807 102.978 176.991C105.179 179.192 107.461 180.67 110.368 181.793C113.341 182.958 116.438 183.557 120.403 183.733C124.706 183.929 128.859 183.96 139.972 183.96C151.06 183.96 155.207 183.932 159.513 183.733C163.461 183.557 166.566 182.958 169.576 181.793C172.519 180.648 174.787 179.166 176.938 176.991C179.096 174.832 180.586 172.558 181.77 169.599C182.916 166.589 183.504 163.495 183.686 159.566C183.876 155.266 183.938 151.166 183.938 139.997C183.938 128.856 183.879 124.757 183.686 120.456C183.506 116.53 182.918 113.439 181.768 110.418C180.589 107.444 179.099 105.165 176.94 103.034C174.782 100.85 172.505 99.3692 169.551 98.2296C166.575 97.0648 163.478 96.4684 159.513 96.2892C155.24 96.0988 151.15 96.04 139.972 96.04ZM139.972 174.412C129.214 174.412 125.076 174.359 120.719 174.163C116.978 173.989 115.018 173.384 113.73 172.88C112.101 172.239 110.93 171.48 109.684 170.254C108.45 169.019 107.71 167.885 107.069 166.228C106.56 164.895 105.952 162.882 105.781 159.244C105.591 155.067 105.56 151.178 105.56 139.969C105.56 128.783 105.591 124.9 105.781 120.719C105.952 117.057 106.56 115.046 107.075 113.702C107.705 112.095 108.466 110.93 109.701 109.698C110.933 108.464 112.098 107.702 113.728 107.064C115.052 106.56 117.065 105.946 120.725 105.778C124.376 105.622 128.604 105.56 136.304 105.56H139.975C150.828 105.56 154.969 105.613 159.253 105.806C163.022 105.983 164.945 106.582 166.202 107.086C167.916 107.741 168.974 108.424 170.29 109.718C171.511 110.939 172.273 112.109 172.906 113.744C173.398 115.041 173.995 117.02 174.166 120.725C174.359 125.084 174.415 129.226 174.415 139.975C174.415 150.746 174.359 154.893 174.166 159.256C173.992 162.957 173.401 164.931 172.903 166.239C172.248 167.88 171.5 169.028 170.262 170.293C169.016 171.517 167.88 172.253 166.253 172.88C165.066 173.354 163.089 173.989 159.25 174.166C154.896 174.359 150.752 174.412 139.972 174.412Z" fill="#472B29"/>
<path d="M163.8 121.1C161.098 121.1 158.9 118.902 158.9 116.2C158.9 113.498 161.098 111.3 163.8 111.3C165.108 111.3 166.34 111.809 167.264 112.733C168.19 113.66 168.7 114.889 168.7 116.197C168.7 118.902 166.502 121.1 163.8 121.1Z" fill="white"/>
<path d="M163.8 112C166.118 112 168 113.881 168 116.2C168 118.518 166.118 120.4 163.8 120.4C161.482 120.4 159.6 118.518 159.6 116.2C159.6 113.881 161.482 112.002 163.8 112ZM163.8 110.6C160.712 110.602 158.2 113.114 158.2 116.2C158.2 119.288 160.712 121.8 163.8 121.8C166.888 121.8 169.4 119.288 169.4 116.2C169.4 113.111 166.888 110.6 163.8 110.6Z" fill="#472B29"/>
<path d="M139.966 116.211C126.82 116.211 116.164 126.868 116.164 140.014C116.164 153.16 126.82 163.811 139.966 163.811C153.112 163.811 163.764 153.157 163.764 140.014C163.764 126.871 153.11 116.211 139.966 116.211ZM139.966 124.614C148.47 124.614 155.366 131.507 155.366 140.014C155.366 148.517 148.47 155.414 139.966 155.414C131.46 155.414 124.566 148.517 124.566 140.014C124.566 131.507 131.46 124.614 139.966 124.614Z" fill="white"/>
<path d="M139.966 164.511C126.456 164.511 115.464 153.521 115.464 140.011C115.464 126.501 126.456 115.511 139.966 115.511C153.474 115.511 164.464 126.501 164.464 140.011C164.464 153.521 153.474 164.511 139.966 164.511ZM139.966 116.911C127.226 116.911 116.864 127.274 116.864 140.011C116.864 152.748 127.226 163.111 139.966 163.111C152.704 163.111 163.064 152.748 163.064 140.011C163.064 127.274 152.704 116.911 139.966 116.911ZM139.966 156.111C131.088 156.111 123.866 148.887 123.866 140.011C123.866 131.135 131.088 123.911 139.966 123.911C148.845 123.911 156.066 131.135 156.066 140.011C156.066 148.887 148.845 156.111 139.966 156.111ZM139.966 125.311C131.86 125.311 125.266 131.905 125.266 140.011C125.266 148.117 131.86 154.711 139.966 154.711C148.072 154.711 154.666 148.117 154.666 140.011C154.666 131.905 148.072 125.311 139.966 125.311Z" fill="#472B29"/>
</svg>
