<svg width="290" height="290" viewBox="0 0 290 290" fill="none" xmlns="http://www.w3.org/2000/svg">
<path d="M252.88 164.43C256.07 158.05 258.1 151.09 258.1 143.55C258.1 124.41 245.92 107.88 229.1 101.5C229.1 67.8596 201.84 40.5996 168.2 40.5996C139.78 40.5996 116 60.0296 109.33 86.4196C104.98 84.9696 100.63 84.0996 95.7 84.0996C73.37 84.0996 55.1 100.92 52.49 122.67C37.41 125.86 26.1 139.2 26.1 155.15C26.1 173.71 40.89 188.5 59.45 188.5C60.03 188.5 60.61 188.5 60.9 188.5C60.9 189.08 60.9 189.37 60.9 189.95C60.9 222.72 87.58 249.4 120.35 249.4C138.91 249.4 155.73 240.7 166.46 227.36C172.84 233.74 181.54 237.8 191.4 237.8C205.03 237.8 216.63 229.97 222.43 218.95C225.62 219.82 228.81 220.4 232 220.4C249.69 220.4 263.9 206.19 263.9 188.5C263.9 178.93 259.55 170.23 252.88 164.43Z" fill="#C7EDE6"/>
<path d="M221.85 204.45V205.9H230.55V204.45C230.55 204.45 242.73 204.45 246.5 204.45C253.75 204.45 259.55 198.65 259.55 191.4C259.55 184.73 254.33 179.22 247.66 178.35C247.66 177.77 247.95 177.19 247.95 176.9C247.95 169.65 242.15 163.85 234.9 163.85C230.84 163.85 227.07 165.88 224.75 168.78C224.46 161.24 218.08 155.15 210.25 155.15C202.13 155.15 195.75 161.53 195.75 169.65C195.75 170.81 196.04 172.26 196.33 173.42C194.3 171.1 191.69 169.65 188.5 169.65C183.28 169.65 179.22 173.42 178.35 178.64C177.77 178.64 177.19 178.35 176.9 178.35C169.65 178.35 163.85 184.15 163.85 191.4C163.85 198.65 169.65 204.45 176.9 204.45C184.15 204.45 204.45 204.45 204.45 204.45H221.85Z" fill="#FDFCEF"/>
<path d="M210.25 153.7C201.55 153.7 194.3 160.95 194.3 169.65C192.56 168.49 190.53 168.2 188.5 168.2C183.28 168.2 178.64 171.97 177.19 176.9H176.9C168.78 176.9 162.4 183.28 162.4 191.4C162.4 199.52 168.78 205.9 176.9 205.9H221.85C222.72 205.9 223.3 205.32 223.3 204.45C223.3 203.58 222.72 203 221.85 203H176.9C170.52 203 165.3 197.78 165.3 191.4C165.3 185.02 170.52 179.8 176.9 179.8C177.19 179.8 177.48 179.8 177.77 179.8H178.06C178.06 179.8 178.06 179.8 178.35 179.8C178.93 179.8 179.8 179.22 179.8 178.64C180.38 174.29 184.15 171.1 188.5 171.1C191.11 171.1 193.43 172.26 195.17 174.29C195.46 174.58 195.75 174.87 196.33 174.87C196.62 174.87 196.91 174.87 196.91 174.58C197.49 174.29 197.78 173.71 197.78 172.84C197.49 171.68 197.2 170.52 197.2 169.36C197.2 162.11 203 156.31 210.25 156.31C217.21 156.31 222.72 161.82 223.3 168.78C223.3 169.36 223.88 169.94 224.17 170.23C224.46 170.23 224.46 170.23 224.75 170.23C225.33 170.23 225.62 169.94 225.91 169.65C228.23 166.75 231.42 165.3 234.9 165.3C241.28 165.3 246.5 170.52 246.5 176.9C246.5 177.19 246.5 177.48 246.5 177.77V178.06C246.5 178.35 246.5 178.93 246.79 179.22C247.08 179.51 247.37 179.8 247.66 179.8C253.75 180.38 258.1 185.31 258.1 191.4C258.1 197.78 252.88 203 246.5 203H230.55C229.68 203 229.1 203.58 229.1 204.45C229.1 205.32 229.68 205.9 230.55 205.9H246.5C254.62 205.9 261 199.52 261 191.4C261 184.44 256.07 178.64 249.4 177.19V176.9C249.4 168.78 243.02 162.4 234.9 162.4C231.42 162.4 228.23 163.56 225.62 165.88C223.88 158.92 217.79 153.7 210.25 153.7Z" fill="#472B29"/>
<path d="M205.9 174C201.84 174 198.36 176.9 197.49 180.67C196.33 180.09 195.17 179.8 194.01 179.8C190.53 179.8 187.63 182.41 187.05 185.89C186.47 185.89 185.89 185.6 185.31 185.6C180.96 185.6 177.19 189.08 176.9 193.43C176.9 193.72 177.19 194.3 177.48 194.3C177.77 194.3 178.06 194.01 178.06 193.72C178.35 189.95 181.54 187.05 185.02 187.05C185.6 187.05 186.47 187.05 187.05 187.34C187.05 187.34 187.05 187.34 187.34 187.34C187.63 187.34 187.63 187.34 187.92 187.05C188.21 187.05 188.21 186.76 188.21 186.47C188.21 183.57 190.53 180.96 193.72 180.96C194.88 180.96 196.33 181.54 197.2 182.41C197.2 182.41 197.49 182.7 197.78 182.7H198.07C198.36 182.7 198.36 182.41 198.65 182.12C198.94 178.35 202.13 175.45 205.9 175.45C206.48 175.45 207.06 175.45 207.93 175.74C207.93 175.74 207.93 175.74 208.22 175.74C208.51 175.74 208.8 175.45 208.8 175.16C208.8 174.87 208.8 174.29 208.22 174.29C207.35 174 206.77 174 205.9 174ZM246.21 178.35C242.44 178.35 238.96 180.96 237.8 184.73C237.8 185.02 237.8 185.6 238.38 185.6C238.38 185.6 238.38 185.6 238.67 185.6C238.96 185.6 239.25 185.31 239.25 185.02C240.12 181.83 243.02 179.8 246.21 179.8C246.5 179.8 246.79 179.8 247.08 179.8C247.37 179.8 247.66 179.51 247.66 179.22C247.66 178.93 247.37 178.35 247.08 178.35C247.08 178.35 246.5 178.35 246.21 178.35Z" fill="#472B29"/>
<path d="M97.15 232H68.15C67.28 232 66.7 231.42 66.7 230.55C66.7 229.68 67.28 229.1 68.15 229.1H97.15C98.02 229.1 98.6 229.68 98.6 230.55C98.6 231.42 98.02 232 97.15 232ZM105.85 232H102.95C102.08 232 101.5 231.42 101.5 230.55C101.5 229.68 102.08 229.1 102.95 229.1H105.85C106.72 229.1 107.3 229.68 107.3 230.55C107.3 231.42 106.72 232 105.85 232ZM120.35 237.8H94.25C93.38 237.8 92.8 237.22 92.8 236.35C92.8 235.48 93.38 234.9 94.25 234.9H120.35C121.22 234.9 121.8 235.48 121.8 236.35C121.8 237.22 121.22 237.8 120.35 237.8ZM88.45 237.8H85.55C84.68 237.8 84.1 237.22 84.1 236.35C84.1 235.48 84.68 234.9 85.55 234.9H88.45C89.32 234.9 89.9 235.48 89.9 236.35C89.9 237.22 89.32 237.8 88.45 237.8ZM79.75 237.8H73.95C73.08 237.8 72.5 237.22 72.5 236.35C72.5 235.48 73.08 234.9 73.95 234.9H79.75C80.62 234.9 81.2 235.48 81.2 236.35C81.2 237.22 80.62 237.8 79.75 237.8ZM97.15 243.6H91.35C90.48 243.6 89.9 243.02 89.9 242.15C89.9 241.28 90.48 240.7 91.35 240.7H97.15C98.02 240.7 98.6 241.28 98.6 242.15C98.6 243.02 98.02 243.6 97.15 243.6ZM105.85 217.5C105.27 217.5 103.53 217.5 102.95 217.5C102.08 217.5 101.5 218.08 101.5 218.95C101.5 219.82 102.08 220.4 102.95 220.4C103.53 220.4 105.27 220.4 105.85 220.4C106.72 220.4 107.3 219.82 107.3 218.95C107.3 218.08 106.72 217.5 105.85 217.5ZM105.85 223.3C105.27 223.3 91.93 223.3 91.35 223.3C90.48 223.3 89.9 223.88 89.9 224.75C89.9 225.62 90.48 226.2 91.35 226.2C91.93 226.2 105.27 226.2 105.85 226.2C106.72 226.2 107.3 225.62 107.3 224.75C107.3 223.88 106.72 223.3 105.85 223.3ZM120.35 229.1C119.77 229.1 112.23 229.1 111.65 229.1C110.78 229.1 110.2 229.68 110.2 230.55C110.2 231.42 110.78 232 111.65 232C112.23 232 119.77 232 120.35 232C121.22 232 121.8 231.42 121.8 230.55C121.8 229.68 121.22 229.1 120.35 229.1Z" fill="white"/>
<path d="M210.25 69.6004H181.25C180.38 69.6004 179.8 69.0204 179.8 68.1504C179.8 67.2804 180.38 66.7004 181.25 66.7004H210.25C211.12 66.7004 211.7 67.2804 211.7 68.1504C211.7 69.0204 211.12 69.6004 210.25 69.6004ZM221.85 69.6004H216.05C215.18 69.6004 214.6 69.0204 214.6 68.1504C214.6 67.2804 215.18 66.7004 216.05 66.7004H221.85C222.72 66.7004 223.3 67.2804 223.3 68.1504C223.3 69.0204 222.72 69.6004 221.85 69.6004ZM236.35 75.4004H207.35C206.48 75.4004 205.9 74.8204 205.9 73.9504C205.9 73.0804 206.48 72.5004 207.35 72.5004H236.35C237.22 72.5004 237.8 73.0804 237.8 73.9504C237.8 74.8204 237.22 75.4004 236.35 75.4004ZM201.55 75.4004H198.65C197.78 75.4004 197.2 74.8204 197.2 73.9504C197.2 73.0804 197.78 72.5004 198.65 72.5004H201.55C202.42 72.5004 203 73.0804 203 73.9504C203 74.8204 202.42 75.4004 201.55 75.4004ZM192.85 75.4004H187.05C186.18 75.4004 185.6 74.8204 185.6 73.9504C185.6 73.0804 186.18 72.5004 187.05 72.5004H192.85C193.72 72.5004 194.3 73.0804 194.3 73.9504C194.3 74.8204 193.43 75.4004 192.85 75.4004ZM218.95 63.8004H204.45C203.58 63.8004 203 63.2204 203 62.3504C203 61.4804 203.58 60.9004 204.45 60.9004H218.95C219.82 60.9004 220.4 61.4804 220.4 62.3504C220.4 63.2204 219.82 63.8004 218.95 63.8004ZM210.25 81.2004H204.45C203.58 81.2004 203 80.6204 203 79.7504C203 78.8804 203.58 78.3004 204.45 78.3004H210.25C211.12 78.3004 211.7 78.8804 211.7 79.7504C211.7 80.6204 211.12 81.2004 210.25 81.2004Z" fill="white"/>
<path d="M152.25 75.4004C114.55 75.4004 84.1 105.85 84.1 143.55C84.1 156.6 87.58 168.49 93.96 178.93L84.1 209.09L113.39 199.52C124.41 207.35 137.75 211.7 152.25 211.7C189.95 211.7 220.4 181.25 220.4 143.55C220.4 105.85 189.95 75.4004 152.25 75.4004Z" fill="#ADD4A1"/>
<path d="M152.25 213.73C138.04 213.73 124.7 209.67 113.1 201.84L84.97 211.12C84.1 211.41 83.52 211.12 82.94 210.54C82.36 209.96 82.07 209.09 82.36 208.51L91.93 179.22C85.55 168.49 82.36 156.31 82.36 143.55C82.36 104.98 113.97 73.3701 152.54 73.3701C191.11 73.3701 222.72 104.98 222.72 143.55C222.72 182.12 190.82 213.73 152.25 213.73ZM113.39 197.49C113.68 197.49 114.26 197.49 114.55 197.78C125.57 205.61 138.62 209.67 152.25 209.67C188.79 209.67 218.37 180.09 218.37 143.55C218.37 107.01 188.79 77.4301 152.25 77.4301C115.71 77.4301 86.13 107.01 86.13 143.55C86.13 155.73 89.32 167.62 95.7 177.77C95.99 178.35 95.99 178.93 95.99 179.51L87.29 205.9L112.52 197.49C112.81 197.49 113.1 197.49 113.39 197.49Z" fill="#472B29"/>
<path d="M196.04 110.49C185.89 97.4402 170.23 88.7402 152.25 88.7402C122.09 88.7402 97.44 113.39 97.44 143.55C97.44 154.86 100.92 165.59 107.01 174.29L101.21 192.27L118.61 186.76C127.89 194.01 139.78 198.65 152.54 198.65C182.7 198.65 207.35 174 207.35 143.84C207.35 140.65 207.06 137.75 206.48 134.56" fill="#5ABA9E"/>
<path d="M152.25 199.81C139.78 199.81 127.89 195.75 118.03 188.21L101.5 193.72C100.92 194.01 100.34 193.72 100.05 193.43C99.76 193.14 99.47 192.56 99.76 191.98L105.27 174.58C99.18 165.3 95.99 154.57 95.99 143.55C95.99 112.52 121.22 87.29 152.25 87.29C169.94 87.29 186.47 95.41 197.2 109.62C197.78 110.2 197.49 111.07 196.91 111.65C196.33 112.23 195.46 111.94 194.88 111.36C184.73 98.02 169.07 90.19 152.25 90.19C122.96 90.19 98.89 114.26 98.89 143.55C98.89 154.28 102.08 164.72 108.17 173.42C108.46 173.71 108.46 174.29 108.46 174.58L103.53 189.95L118.03 185.31C118.61 185.02 118.9 185.31 119.48 185.6C129.05 193.14 140.36 197.2 152.54 197.2C181.83 197.2 205.9 173.13 205.9 143.84C205.9 140.94 205.61 137.75 205.03 134.85C205.03 133.98 205.32 133.4 206.19 133.11C207.06 133.11 207.64 133.4 207.93 134.27C208.51 137.46 208.8 140.65 208.8 143.55C208.51 174.58 183.28 199.81 152.25 199.81Z" fill="#472B29"/>
<path d="M204.45 126.44C203.29 123.25 201.84 120.06 200.39 116.87Z" fill="#5ABA9E"/>
<path d="M204.45 127.89C203.87 127.89 203.29 127.6 203 127.02C201.84 123.83 200.68 120.64 198.94 117.74C198.65 117.16 198.94 116.29 199.52 115.71C200.1 115.42 200.97 115.71 201.55 116.29C203.29 119.48 204.74 122.67 205.9 125.86C206.19 126.73 205.61 127.31 205.03 127.6C204.74 127.89 204.45 127.89 204.45 127.89Z" fill="#472B29"/>
<path d="M174.29 172.84C170.23 172.84 164.43 171.39 156.02 167.91C145 163.56 133.98 154.57 124.99 142.39L124.41 141.81C121.8 138.33 117.16 131.37 117.16 124.41C116.87 119.19 119.19 113.97 123.54 110.49C124.99 109.33 127.02 108.75 128.76 108.75H129.34H131.37C131.37 108.75 131.66 108.75 131.95 108.75C132.24 108.75 132.24 108.75 132.53 108.75C132.82 108.75 133.11 109.04 133.4 109.33C133.98 109.91 134.27 110.49 134.56 111.36L136.88 116.29C138.62 120.35 140.07 123.54 140.36 124.12C140.65 124.41 141.23 125.57 140.65 126.73C140.07 127.6 139.49 128.47 138.91 129.05C138.62 129.63 138.33 129.92 137.75 130.21L137.46 130.5C137.17 130.79 136.3 131.66 135.72 132.24C134.27 133.69 133.98 135.43 134.85 136.88C137.75 141.52 141.23 145.58 145.58 149.06C149.93 152.83 154.86 155.73 160.37 157.76L160.95 158.05C161.53 158.34 162.4 158.63 163.27 158.63C164.72 158.63 165.88 158.05 166.75 157.18C168.2 155.73 169.65 153.7 171.1 151.96L171.97 150.8C172.26 150.51 172.84 149.64 174 149.64C174.29 149.64 174.87 149.64 175.16 149.93C176.61 150.51 184.73 153.99 187.63 155.44L188.79 156.02L190.24 156.6C190.82 156.89 191.11 157.18 191.11 157.76C191.11 160.37 190.82 162.69 189.95 165.01C188.5 168.49 182.7 171.97 178.06 172.84C176.9 172.55 175.74 172.84 174.29 172.84Z" fill="#FDFCEE"/>
<path d="M131.66 110.2C131.95 110.2 131.95 110.2 132.24 110.2C132.53 110.49 132.82 111.07 133.11 111.65L134.85 115.42C137.17 120.35 138.62 124.12 138.91 124.7C139.2 125.28 139.2 125.57 139.2 125.86C138.91 126.73 138.33 127.31 137.75 127.89L137.46 128.18C137.17 128.47 136.59 129.05 136.3 129.34C136.01 129.63 135.14 130.5 134.56 131.08C132.53 132.82 132.24 135.43 133.69 137.46C136.59 142.1 140.36 146.45 144.71 149.93C149.06 153.7 154.28 156.6 159.79 158.63L160.37 158.92C161.24 159.21 162.11 159.5 162.98 159.5C164.72 159.5 166.46 158.92 167.62 157.76C169.07 156.02 170.81 154.28 171.97 152.54L172.84 151.38C173.13 151.09 173.42 150.8 173.71 150.8C174 150.8 174.29 150.8 174.58 151.09C176.03 151.67 183.86 155.15 187.05 156.6L188.21 157.18L189.66 157.76C189.66 160.08 189.37 162.4 188.5 164.43C187.34 167.62 182.12 170.52 177.77 171.39C176.9 171.68 176.03 171.68 174.58 171.68C171.68 171.68 166.75 170.81 156.6 167.04C145.87 162.98 134.85 153.99 126.15 142.1L125.57 141.52C122.96 138.04 118.61 131.66 118.61 124.99C118.32 120.06 120.64 115.42 124.41 111.94C125.57 111.07 127.31 110.49 128.76 110.49H129.05C129.92 110.49 130.5 110.49 131.08 110.49C131.08 110.2 131.37 110.2 131.66 110.2ZM131.66 107.3C131.37 107.3 131.37 107.3 131.08 107.3H129.34C129.05 107.3 129.05 107.3 128.76 107.3C126.44 107.3 124.41 108.17 122.67 109.33C118.03 113.1 115.71 118.9 115.71 124.41C115.71 131.66 120.64 138.91 123.54 142.68L124.12 143.26C133.11 155.44 144.42 164.72 155.73 169.07C164.43 172.55 170.52 174 174.58 174C176.32 174 177.48 173.71 178.35 173.71C183.28 172.84 189.66 169.36 191.11 165.01C191.98 162.69 192.56 159.79 192.56 157.18C192.56 156.02 191.69 155.15 190.82 154.57L189.37 153.99L187.92 153.7C185.31 152.54 176.9 148.48 175.16 147.9C174.87 147.9 174.29 147.61 173.42 147.61C171.39 147.61 170.52 149.06 170.23 149.35L169.36 150.51C167.91 152.25 166.75 153.99 165.3 155.44C164.72 156.02 163.85 156.31 162.69 156.31C162.11 156.31 161.53 156.31 161.24 156.02L160.66 155.73C155.44 153.7 150.51 151.09 146.45 147.32C142.39 143.84 138.91 139.78 136.01 135.43C135.43 134.56 135.72 133.4 136.3 132.82L136.59 132.53C137.17 131.95 137.75 131.37 138.04 130.79L138.33 130.5C138.62 130.21 138.91 129.92 139.2 129.63C140.07 128.76 140.65 127.89 141.23 127.02C141.81 126.15 142.1 124.7 140.94 122.96C140.65 122.38 139.2 119.19 137.46 115.42L136.88 113.97L135.14 110.2C134.85 109.33 134.27 108.46 133.69 107.88C133.11 107.3 132.53 107.01 131.95 107.01C131.95 107.3 131.66 107.3 131.66 107.3Z" fill="#472B29"/>
<path d="M94.25 163.85C94.25 163.85 98.89 163.85 104.4 163.85C109.91 163.85 114.55 159.21 114.55 153.7C114.55 148.48 110.78 144.42 105.56 143.55C105.56 142.97 105.85 142.39 105.85 142.1C105.85 136.59 101.21 131.95 95.7 131.95C92.8 131.95 89.9 133.4 88.16 135.43C87 130.21 82.36 126.15 76.85 126.15C70.47 126.15 65.25 131.37 65.25 137.75C65.25 138.33 65.25 138.91 65.54 139.49C64.38 138.62 62.64 137.75 60.9 137.75C57.42 137.75 54.52 140.36 53.65 143.84C53.07 143.84 52.49 143.55 52.2 143.55C46.69 143.55 42.05 148.19 42.05 153.7C42.05 159.21 46.69 163.85 52.2 163.85C57.71 163.85 73.95 163.85 73.95 163.85V165.3H94.25V163.85Z" fill="#FDFCEF"/>
<path d="M99.47 150.8C99.18 150.8 98.6 150.51 98.6 149.93C98.6 146.45 101.5 143.55 104.98 143.55C104.98 143.55 107.01 143.55 108.46 143.84C108.75 143.84 109.04 144.42 109.04 144.71C109.04 145 108.46 145.29 108.17 145.29C107.01 145 104.98 145 104.98 145C102.37 145 100.05 147.32 100.05 149.93C100.05 150.51 99.76 150.8 99.47 150.8ZM79.75 162.4C79.3654 162.4 78.9966 162.553 78.7247 162.824C78.4528 163.096 78.3 163.465 78.3 163.85C78.3 164.234 78.4528 164.603 78.7247 164.875C78.9966 165.147 79.3654 165.3 79.75 165.3C80.1346 165.3 80.5034 165.147 80.7753 164.875C81.0472 164.603 81.2 164.234 81.2 163.85C81.2 163.465 81.0472 163.096 80.7753 162.824C80.5034 162.553 80.1346 162.4 79.75 162.4Z" fill="#472B29"/>
<path d="M104.4 165.3H94.25C93.38 165.3 92.8 164.72 92.8 163.85C92.8 162.98 93.38 162.4 94.25 162.4H104.4C109.33 162.4 113.1 158.63 113.1 153.7C113.1 149.35 109.91 145.58 105.56 145C105.27 145 104.69 144.71 104.69 144.42C104.69 144.13 104.4 143.84 104.4 143.26C104.4 142.68 104.4 142.39 104.4 141.81C104.4 136.88 100.63 133.11 95.7 133.11C93.38 133.11 91.06 134.27 89.32 136.01C89.03 136.3 88.45 136.59 87.87 136.3C87.29 136.3 87 135.72 86.71 135.14C85.84 130.5 81.49 127.02 76.85 127.02C71.34 127.02 66.7 131.66 66.7 137.17C66.7 137.46 66.7 138.04 66.7 138.33C66.7 138.91 66.41 139.49 66.12 139.78C65.83 140.07 64.96 140.07 64.38 139.78C63.51 139.78 62.06 139.2 60.9 139.2C58 139.2 55.68 141.23 55.1 143.84C55.1 144.71 54.23 145 53.36 145C52.78 145 52.49 145 51.91 145C46.98 145 43.21 148.77 43.21 153.7C43.21 158.63 46.98 162.4 51.91 162.4H73.66C74.53 162.4 75.11 162.98 75.11 163.85C75.11 164.72 74.82 165.3 73.95 165.3H52.2C45.82 165.3 40.6 160.08 40.6 153.7C40.6 147.32 45.82 142.1 52.2 142.1C52.49 142.1 52.49 142.1 52.78 142.1C53.94 138.62 57.13 136.3 60.9 136.3C61.77 136.3 62.93 136.59 63.8 136.88C64.38 130.21 69.89 124.7 76.85 124.7C82.07 124.7 87 127.89 89.03 132.82C91.06 131.37 93.38 130.5 95.7 130.5C102.08 130.5 107.3 135.72 107.3 142.1V142.39C112.23 143.55 116 148.19 116 153.7C116 160.08 110.78 165.3 104.4 165.3Z" fill="#472B29"/>
<path d="M88.45 162.4C87.87 162.4 86.13 162.4 85.55 162.4C84.68 162.4 84.1 162.98 84.1 163.85C84.1 164.72 84.68 165.3 85.55 165.3C86.13 165.3 87.87 165.3 88.45 165.3C89.32 165.3 89.9 164.72 89.9 163.85C89.9 162.98 89.32 162.4 88.45 162.4Z" fill="#472B29"/>
</svg>
