<svg width="275" height="275" viewBox="0 0 275 275" fill="none" xmlns="http://www.w3.org/2000/svg">
<path d="M189.75 225.5H85.25C65.505 225.5 49.5 209.495 49.5 189.75V85.25C49.5 65.505 65.505 49.5 85.25 49.5H189.75C209.495 49.5 225.5 65.505 225.5 85.25V189.75C225.5 209.495 209.495 225.5 189.75 225.5Z" fill="#4E6E91"/>
<path d="M86.625 163.625C86.625 144.268 100.999 128.246 119.625 125.565V119.729C118.717 119.661 117.802 119.625 116.875 119.625C95.645 119.625 78.375 136.895 78.375 158.125C78.375 173.244 87.1585 186.318 99.869 192.613C91.773 185.551 86.625 175.189 86.625 163.625Z" fill="#78CCD3"/>
<path d="M125.125 182.875C135.74 182.875 144.375 174.237 144.375 163.625V130.334V116.875V78.375H156.489C156.052 76.6617 155.697 74.8357 155.455 72.875H136.125V111.375V124.834V158.125C136.125 168.737 127.49 177.375 116.875 177.375C114.719 177.375 112.654 177.004 110.718 176.346C114.246 180.339 119.389 182.875 125.125 182.875Z" fill="#78CCD3"/>
<path d="M188.375 103.125C187.797 103.125 181.063 103.031 173.8 99.6543C178.505 104.027 183.964 106.271 188.375 107.418V103.125Z" fill="#78CCD3"/>
<path d="M173.8 99.6545C168.979 95.172 164.956 88.4593 163.705 78.375H156.489C159.527 90.2715 166.9 96.448 173.8 99.6545Z" fill="#78CCD3"/>
<path d="M188.375 107.418V122.375C179.622 122.375 166.381 119.455 155.375 110.831V158.125C155.375 179.355 138.105 196.625 116.875 196.625C110.765 196.625 105.006 195.157 99.869 192.613C106.637 198.517 115.459 202.125 125.125 202.125C146.355 202.125 163.625 184.855 163.625 163.625V116.331C174.631 124.957 187.872 127.875 196.625 127.875V108.625C196.224 108.625 192.838 108.578 188.375 107.418Z" fill="#F05B6C"/>
<path d="M116.875 138.875C106.26 138.875 97.625 147.513 97.625 158.125C97.625 166.584 103.117 173.77 110.718 176.346C107.715 172.95 105.875 168.504 105.875 163.625C105.875 153.013 114.51 144.375 125.125 144.375C126.06 144.375 126.976 144.449 127.875 144.581V125.229C126.967 125.161 126.052 125.125 125.125 125.125C123.252 125.125 121.426 125.304 119.625 125.565V139.081C118.726 138.949 117.81 138.875 116.875 138.875Z" fill="#F05B6C"/>
<path d="M155.375 158.125V110.83C166.38 119.457 179.622 122.375 188.375 122.375V107.418C183.964 106.271 178.505 104.03 173.8 99.6545C166.9 96.448 159.527 90.2715 156.489 78.375H144.375V116.875V130.334V163.625C144.375 174.237 135.74 182.875 125.125 182.875C119.389 182.875 114.246 180.339 110.718 176.346C103.117 173.77 97.625 166.584 97.625 158.125C97.625 147.513 106.26 138.875 116.875 138.875C117.81 138.875 118.726 138.949 119.625 139.081V125.565C100.999 128.249 86.625 144.268 86.625 163.625C86.625 175.189 91.773 185.551 99.869 192.613C105.006 195.157 110.765 196.625 116.875 196.625C138.105 196.625 155.375 179.355 155.375 158.125Z" fill="white"/>
<path d="M99.869 193.988C99.6628 193.988 99.4565 193.941 99.2585 193.845C85.5305 187.049 77 173.363 77 158.125C77 136.139 94.8888 118.25 116.875 118.25C117.837 118.25 118.786 118.289 119.729 118.36C120.447 118.412 121 119.009 121 119.729V125.565C121 126.25 120.497 126.827 119.82 126.926C101.681 129.536 88 145.315 88 163.625C88 174.306 92.6557 184.495 100.776 191.576C101.293 192.032 101.401 192.8 101.016 193.374C100.752 193.77 100.317 193.988 99.869 193.988ZM116.875 121C96.404 121 79.75 137.654 79.75 158.125C79.75 168.759 84.2132 178.582 91.839 185.501C87.582 179.052 85.25 171.465 85.25 163.625C85.25 144.356 99.3548 127.699 118.25 124.391V121.027C117.794 121.008 117.337 121 116.875 121Z" fill="#1F212B"/>
<path d="M125.125 184.25C119.24 184.25 113.613 181.701 109.686 177.257C109.277 176.789 109.227 176.104 109.574 175.585C109.92 175.065 110.572 174.851 111.158 175.043C113.03 175.678 114.953 176 116.875 176C126.731 176 134.75 167.981 134.75 158.125V72.875C134.75 72.116 135.366 71.5 136.125 71.5H155.455C156.15 71.5 156.736 72.017 156.819 72.7072C157.041 74.5085 157.377 76.3015 157.82 78.0368C157.924 78.4465 157.833 78.8837 157.572 79.2192C157.311 79.5547 156.915 79.75 156.489 79.75H145.75V163.625C145.75 174.999 136.499 184.25 125.125 184.25ZM115.574 178.709C118.412 180.513 121.72 181.5 125.125 181.5C134.981 181.5 143 173.481 143 163.625V78.375C143 77.616 143.616 77 144.375 77H154.753C154.561 76.0925 154.393 75.174 154.253 74.25H137.5V158.125C137.5 169.499 128.249 178.75 116.875 178.75C116.443 178.75 116.009 178.736 115.574 178.709Z" fill="#1F212B"/>
<path d="M188.375 108.793C188.259 108.793 188.144 108.779 188.028 108.749C182.075 107.2 176.971 104.481 172.862 100.664C172.367 100.204 172.282 99.4508 172.659 98.8898C173.038 98.326 173.764 98.128 174.38 98.4085C181.489 101.711 188.097 101.75 188.375 101.75C189.134 101.75 189.75 102.366 189.75 103.125V107.418C189.75 107.844 189.555 108.245 189.216 108.507C188.974 108.691 188.675 108.793 188.375 108.793ZM182.523 103.867C183.942 104.533 185.438 105.11 187 105.594V104.448C185.955 104.379 184.404 104.222 182.523 103.867Z" fill="#1F212B"/>
<path d="M173.8 101.029C173.605 101.029 173.407 100.988 173.22 100.903C164.018 96.624 157.773 88.9515 155.158 78.716C155.053 78.3035 155.144 77.8663 155.405 77.5308C155.667 77.1953 156.065 77 156.489 77H163.705C164.398 77 164.984 77.517 165.069 78.2045C166.136 86.7982 169.386 93.676 174.738 98.648C175.233 99.1073 175.318 99.8607 174.941 100.422C174.68 100.812 174.246 101.029 173.8 101.029ZM158.301 79.75C160.097 85.6212 163.163 90.398 167.456 94.028C164.973 89.9443 163.314 85.1702 162.503 79.75H158.301Z" fill="#1F212B"/>
<path d="M125.125 203.5C115.536 203.5 106.246 200.002 98.9642 193.649C98.4445 193.193 98.34 192.423 98.725 191.848C99.11 191.273 99.8662 191.072 100.479 191.38C105.663 193.949 111.177 195.25 116.875 195.25C137.346 195.25 154 178.596 154 158.125V110.83C154 110.305 154.3 109.824 154.773 109.593C155.243 109.362 155.809 109.422 156.222 109.747C166.257 117.612 178.428 120.678 186.997 120.975V107.415C186.997 106.988 187.193 106.587 187.531 106.326C187.864 106.064 188.298 105.976 188.719 106.084C193.143 107.236 196.485 107.25 196.625 107.25C197.384 107.25 198 107.866 198 108.625V127.875C198 128.634 197.384 129.25 196.625 129.25C188.158 129.25 175.686 126.535 165 119.058V163.625C165 185.611 147.111 203.5 125.125 203.5ZM109.645 197.334C114.474 199.567 119.749 200.75 125.125 200.75C145.596 200.75 162.25 184.096 162.25 163.625V116.93C160.383 115.934 158.54 114.812 156.75 113.558V158.125C156.75 180.111 138.861 198 116.875 198C114.43 198 112.016 197.777 109.645 197.334ZM176.731 122.331C183.378 125.067 189.992 126.291 195.25 126.475V109.945C194.029 109.862 192.093 109.659 189.75 109.155V122.375C189.75 123.134 189.134 123.75 188.375 123.75C185.006 123.75 181.002 123.321 176.731 122.331Z" fill="#1F212B"/>
<path d="M110.718 177.722C110.569 177.722 110.424 177.697 110.278 177.65C101.888 174.804 96.25 166.958 96.25 158.125C96.25 146.751 105.501 137.5 116.875 137.5C117.326 137.5 117.785 137.517 118.25 137.55V125.565C118.25 124.88 118.753 124.303 119.43 124.204C122.766 123.723 125.331 123.659 127.979 123.86C128.697 123.912 129.25 124.509 129.25 125.23V144.581C129.25 144.98 129.077 145.36 128.774 145.621C128.472 145.885 128.068 146 127.677 145.94C126.808 145.813 125.953 145.75 125.125 145.75C115.269 145.75 107.25 153.769 107.25 163.625C107.25 167.962 108.848 172.156 111.749 175.436C112.159 175.901 112.208 176.589 111.862 177.108C111.6 177.499 111.169 177.722 110.718 177.722ZM116.875 140.25C107.019 140.25 99 148.269 99 158.125C99 164.065 101.942 169.491 106.661 172.777C105.248 169.947 104.5 166.821 104.5 163.625C104.5 152.251 113.751 143 125.125 143C125.576 143 126.035 143.017 126.5 143.05V126.528C124.779 126.464 123.057 126.519 121 126.77V139.081C121 139.48 120.827 139.86 120.524 140.121C120.222 140.385 119.826 140.495 119.427 140.44C118.558 140.313 117.703 140.25 116.875 140.25Z" fill="#1F212B"/>
<path d="M116.875 198C110.748 198 104.822 196.603 99.2613 193.845C99.154 193.79 99.0577 193.726 98.967 193.649C90.2495 186.046 85.25 175.101 85.25 163.625C85.25 143.957 99.9433 127.012 119.43 124.204C119.826 124.146 120.227 124.267 120.524 124.526C120.827 124.787 121 125.166 121 125.565V139.081C121 139.48 120.827 139.859 120.524 140.121C120.222 140.385 119.826 140.495 119.427 140.44C118.558 140.313 117.703 140.25 116.875 140.25C107.019 140.25 99 148.269 99 158.125C99 165.778 103.884 172.579 111.158 175.043C111.386 175.12 111.59 175.255 111.749 175.436C115.154 179.289 120.027 181.5 125.125 181.5C134.981 181.5 143 173.481 143 163.625V78.375C143 77.616 143.616 77 144.375 77H156.489C157.118 77 157.666 77.4262 157.82 78.034C160.259 87.5792 165.83 94.4322 174.377 98.4087C174.509 98.4692 174.628 98.5518 174.735 98.648C178.503 102.152 183.208 104.654 188.719 106.087C189.327 106.243 189.75 106.791 189.75 107.418V122.375C189.75 123.134 189.134 123.75 188.375 123.75C179.908 123.75 167.436 121.036 156.75 113.558V158.125C156.75 180.111 138.861 198 116.875 198ZM100.642 191.461C105.776 193.974 111.235 195.25 116.875 195.25C137.346 195.25 154 178.596 154 158.125V110.83C154 110.305 154.3 109.824 154.773 109.593C155.243 109.362 155.809 109.423 156.222 109.747C166.257 117.612 178.428 120.678 186.997 120.975V108.466C181.555 106.904 176.861 104.332 173.022 100.81C164.241 96.6598 158.18 89.397 155.433 79.75H145.75V163.625C145.75 174.999 136.499 184.25 125.125 184.25C119.361 184.25 113.844 181.805 109.931 177.529C101.731 174.589 96.25 166.837 96.25 158.125C96.25 146.751 105.501 137.5 116.875 137.5C117.326 137.5 117.785 137.517 118.25 137.55V127.188C100.895 130.457 88 145.849 88 163.625C88 174.248 92.6063 184.382 100.642 191.461Z" fill="#1F212B"/>
<path d="M61.875 93.5C61.116 93.5 60.5 92.884 60.5 92.125C60.5 74.6872 74.6872 60.5 92.125 60.5H100.375C101.134 60.5 101.75 61.116 101.75 61.875C101.75 62.634 101.134 63.25 100.375 63.25H92.125C76.2025 63.25 63.25 76.2025 63.25 92.125C63.25 92.884 62.634 93.5 61.875 93.5Z" fill="#1F212B"/>
<path d="M212.987 187C212.943 187 212.902 187 212.858 186.995C212.105 186.926 211.544 186.255 211.615 185.499C211.695 184.632 211.75 183.76 211.75 182.875C211.75 182.116 212.366 181.5 213.125 181.5C213.884 181.5 214.5 182.116 214.5 182.875C214.5 183.846 214.442 184.803 214.354 185.751C214.288 186.464 213.689 187 212.987 187Z" fill="#1F212B"/>
<path d="M182.875 214.5C182.116 214.5 181.5 213.884 181.5 213.125C181.5 212.366 182.116 211.75 182.875 211.75C190.237 211.75 197.258 208.953 202.65 203.874C203.203 203.352 204.072 203.376 204.595 203.932C205.114 204.485 205.089 205.356 204.537 205.876C198.63 211.437 190.941 214.5 182.875 214.5Z" fill="#1F212B"/>
<path d="M208.211 200.75C207.952 200.75 207.694 200.678 207.46 200.527C206.825 200.112 206.646 199.259 207.058 198.624C208.637 196.207 209.841 193.559 210.633 190.751C210.84 190.019 211.607 189.59 212.33 189.802C213.064 190.008 213.488 190.77 213.282 191.499C212.413 194.573 211.093 197.475 209.363 200.126C209.099 200.53 208.659 200.75 208.211 200.75Z" fill="#1F212B"/>
<path d="M189.75 228.25H85.25C64.02 228.25 46.75 210.98 46.75 189.75V85.25C46.75 64.02 64.02 46.75 85.25 46.75H189.75C210.98 46.75 228.25 64.02 228.25 85.25V189.75C228.25 210.98 210.98 228.25 189.75 228.25ZM85.25 52.25C67.0532 52.25 52.25 67.0532 52.25 85.25V189.75C52.25 207.947 67.0532 222.75 85.25 222.75H189.75C207.947 222.75 222.75 207.947 222.75 189.75V85.25C222.75 67.0532 207.947 52.25 189.75 52.25H85.25Z" fill="#1F212B"/>
</svg>
